<?xml version="1.0" encoding="UTF-8"?>
<svg id="Layer_1" data-name="Layer 1" xmlns="http://www.w3.org/2000/svg" xmlns:xlink="http://www.w3.org/1999/xlink" viewBox="0 0 29.33 29.33">
  <defs>
    <style>
      .cls-1 {
        fill: #e4cd4f;
        stroke: #006838;
        stroke-miterlimit: 10;
      }
    </style>
  </defs>
  <path class="cls-1" d="M28.83,17.11v-4.73l-3.37-.66c-.24-.88-.58-1.72-1.02-2.5l1.98-2.84-3.35-3.35-2.85,1.92c-.78-.44-1.61-.8-2.49-1.05l-.61-3.4h-4.73l-.66,3.37c-.88,.24-1.72,.58-2.5,1.02l-2.84-1.98-3.35,3.35,1.92,2.85c-.44,.78-.8,1.61-1.05,2.49l-3.4,.61v4.73l3.37,.66c.24,.88,.58,1.72,1.02,2.5l-1.98,2.84,3.35,3.35,2.85-1.92c.78,.44,1.61,.8,2.49,1.05l.61,3.4h4.73l.66-3.37c.88-.24,1.72-.58,2.5-1.02l2.84,1.98,3.35-3.35-1.92-2.85c.44-.78,.8-1.61,1.05-2.49l3.4-.61Zm-14.16,4.86c-4.03,0-7.31-3.27-7.31-7.31s3.27-7.31,7.31-7.31,7.31,3.27,7.31,7.31-3.27,7.31-7.31,7.31Z"/>
  <image width="225" height="225" transform="translate(7.94 7.44) scale(.06)" xlink:href="../images-removebg-preview.png"/>
</svg>